<?xml version="1.0" encoding="UTF-8" standalone="no"?>
<!-- Created with Inkscape (http://www.inkscape.org/) -->

<svg
   width="151.68362mm"
   height="169.81865mm"
   viewBox="0 0 151.68362 169.81865"
   version="1.1"
   id="svg19458"
   inkscape:version="1.1.2 (0a00cf5339, 2022-02-04)"
   sodipodi:docname="stack.svg"
   inkscape:export-filename="/home/ericb/Projects/presentations/20220322-toothpicks-chopsticks-and-sporks/slides/img/stack.png"
   inkscape:export-xdpi="133.96304"
   inkscape:export-ydpi="133.96304"
   xmlns:inkscape="http://www.inkscape.org/namespaces/inkscape"
   xmlns:sodipodi="http://sodipodi.sourceforge.net/DTD/sodipodi-0.dtd"
   xmlns="http://www.w3.org/2000/svg"
   xmlns:svg="http://www.w3.org/2000/svg">
  <sodipodi:namedview
     id="namedview19460"
     pagecolor="#808080"
     bordercolor="#666666"
     borderopacity="1.0"
     inkscape:pageshadow="2"
     inkscape:pageopacity="0"
     inkscape:pagecheckerboard="0"
     inkscape:document-units="mm"
     showgrid="false"
     inkscape:snap-global="true"
     fit-margin-left="10"
     fit-margin-top="10"
     fit-margin-right="10"
     fit-margin-bottom="10"
     inkscape:zoom="0.91591557"
     inkscape:cx="432.35426"
     inkscape:cy="409.97229"
     inkscape:window-width="1920"
     inkscape:window-height="1032"
     inkscape:window-x="1920"
     inkscape:window-y="48"
     inkscape:window-maximized="1"
     inkscape:current-layer="layer1" />
  <defs
     id="defs19455">
    <marker
       style="overflow:visible"
       id="TriangleOutM"
       refX="0"
       refY="0"
       orient="auto"
       inkscape:stockid="TriangleOutM"
       inkscape:isstock="true">
      <path
         transform="scale(0.4)"
         style="fill:context-stroke;fill-rule:evenodd;stroke:context-stroke;stroke-width:1pt"
         d="M 5.77,0 -2.88,5 V -5 Z"
         id="path2449" />
    </marker>
    <marker
       style="overflow:visible"
       id="TriangleOutL"
       refX="0"
       refY="0"
       orient="auto"
       inkscape:stockid="TriangleOutL"
       inkscape:isstock="true">
      <path
         transform="scale(0.8)"
         style="fill:context-stroke;fill-rule:evenodd;stroke:context-stroke;stroke-width:1pt"
         d="M 5.77,0 -2.88,5 V -5 Z"
         id="path2446" />
    </marker>
    <marker
       style="overflow:visible"
       id="Arrow1Lend"
       refX="0"
       refY="0"
       orient="auto"
       inkscape:stockid="Arrow1Lend"
       inkscape:isstock="true">
      <path
         transform="matrix(-0.8,0,0,-0.8,-10,0)"
         style="fill:context-stroke;fill-rule:evenodd;stroke:context-stroke;stroke-width:1pt"
         d="M 0,0 5,-5 -12.5,0 5,5 Z"
         id="path2305" />
    </marker>
    <marker
       style="overflow:visible"
       id="TriangleOutM-0"
       refX="0"
       refY="0"
       orient="auto"
       inkscape:stockid="TriangleOutM"
       inkscape:isstock="true">
      <path
         transform="scale(0.4)"
         style="fill:context-stroke;fill-rule:evenodd;stroke:context-stroke;stroke-width:1pt"
         d="M 5.77,0 -2.88,5 V -5 Z"
         id="path2449-3" />
    </marker>
  </defs>
  <g
     inkscape:label="Layer 1"
     inkscape:groupmode="layer"
     id="layer1"
     transform="translate(42.03558,-14.798587)">
    <path
       id="rect19581"
       style="fill:none;stroke:#e5e9f0;stroke-width:0.938441;stroke-linecap:round;stroke-linejoin:round;stroke-opacity:1"
       d="m 45.355219,57.202721 v 116.945289 0 H 21.966162 v 0 -116.945289"
       sodipodi:nodetypes="cccccc" />
    <path
       id="path20071-9-3-1-9"
       style="fill:none;stroke:#e5e9f0;stroke-width:0.597325;stroke-linecap:round;stroke-linejoin:round;stroke-opacity:1"
       d="m 25.216843,121.86282 c 0.376297,-0.64704 0.574986,-1.05651 1.12037,-1.34122 1.920584,-1.00262 3.852109,-0.81299 6.659431,-0.81299 2.807321,0 5.167045,-0.12611 7.188595,1.04245 1.00115,0.57872 1.91928,1.60767 1.91928,2.65111 0,1.04344 -0.91813,2.07239 -1.91928,2.65111 -2.02155,1.16856 -4.381274,1.04245 -7.188595,1.04245 -2.807322,0 -4.738847,0.18963 -6.659431,-0.81299 -0.545384,-0.28471 -1.120369,-0.78916 -1.120369,-1.34122 0,-0.55206 0.574986,-1.0565 1.12037,-1.34121 1.920584,-1.00262 3.852109,-0.81299 6.659431,-0.81299 2.807321,0 5.167044,-0.12611 7.188594,1.04245 1.00116,0.57872 1.91928,1.60767 1.91928,2.65111 0,1.04344 -0.91812,2.07239 -1.91928,2.65111 -2.02155,1.16856 -4.381273,1.04245 -7.188594,1.04245 -2.807322,0 -4.738847,0.18963 -6.659431,-0.81299 -0.545384,-0.28471 -1.120369,-0.78916 -1.120369,-1.34122 0,-0.55206 0.574986,-1.05651 1.12037,-1.34121 1.920584,-1.00262 3.852109,-0.81299 6.659431,-0.81299 2.807321,0 5.167043,-0.12611 7.188603,1.04245 1.00115,0.57872 1.91928,1.60767 1.91928,2.65111 0,1.04344 -0.91813,2.07239 -1.91928,2.65111 -2.02156,1.16856 -4.381282,1.04245 -7.188603,1.04245 -2.807322,0 -4.738847,0.18963 -6.659431,-0.81299 -0.545384,-0.28471 -1.120369,-0.78916 -1.120369,-1.34122 0,-0.55206 0.574986,-1.05651 1.12037,-1.34121 1.920584,-1.00262 3.852109,-0.81299 6.659431,-0.81299 2.807321,0 5.167042,-0.12611 7.188592,1.04245 1.00116,0.57872 1.91929,1.60767 1.91929,2.65111 0,1.04344 -0.91813,2.07239 -1.91929,2.6511 -2.02155,1.16857 -4.381271,1.04246 -7.188592,1.04246 -2.807322,0 -4.738847,0.18963 -6.659431,-0.81299 -0.545384,-0.28471 -1.120369,-0.78916 -1.120369,-1.34122 0,-0.55206 0.574986,-1.05651 1.12037,-1.34121 1.920584,-1.00262 3.852109,-0.81299 6.659431,-0.81299 2.807321,0 5.167043,-0.12612 7.188599,1.04245 1.00115,0.57872 1.91928,1.60767 1.91928,2.65111 0,1.04344 -0.91813,2.07238 -1.91928,2.6511 -2.021556,1.16857 -4.381278,1.04245 -7.188599,1.04245 -2.807322,0 -4.738847,0.18964 -6.659431,-0.81298 -0.545384,-0.28471 -1.120369,-0.78916 -1.120369,-1.34122 0,-0.55206 0.574986,-1.05651 1.12037,-1.34121 1.920584,-1.00262 3.852109,-0.81299 6.659431,-0.81299 2.807321,0 5.167043,-0.12612 7.188597,1.04245 1.001153,0.57872 1.919281,1.60767 1.919281,2.65111 0,1.04344 -0.918128,2.07238 -1.919281,2.6511 -2.021554,1.16857 -4.381276,1.04245 -7.188597,1.04245 -2.807322,0 -4.738847,0.18964 -6.659431,-0.81298 -0.545384,-0.28471 -1.120369,-0.78916 -1.120369,-1.34122 0,-0.55206 0.574986,-1.05651 1.12037,-1.34122 1.920584,-1.00261 3.852109,-0.81298 6.659431,-0.81298 2.807321,0 5.167043,-0.12612 7.188599,1.04245 1.00115,0.57872 1.91928,1.60767 1.91928,2.65111 0,1.04344 -0.91813,2.07238 -1.91928,2.6511 -2.021556,1.16857 -4.381278,1.04245 -7.188599,1.04245 -2.807322,0 -4.738847,0.18963 -6.659431,-0.81298 -0.545384,-0.28471 -1.120369,-0.78916 -1.120369,-1.34122 0,-0.55206 0.574986,-1.05651 1.12037,-1.34122 1.920584,-1.00261 3.852109,-0.81298 6.659431,-0.81298 2.807321,0 5.167043,-0.12612 7.188597,1.04245 1.001153,0.57872 1.919281,1.60767 1.919281,2.6511 0,1.04344 -0.918128,2.07239 -1.919281,2.65111 -2.021554,1.16857 -4.381276,1.04245 -7.188597,1.04245 -2.807322,0 -4.738847,0.18963 -6.659431,-0.81298 -0.545384,-0.28471 -1.120369,-0.78916 -1.120369,-1.34122 0,-0.55206 0.574986,-1.05651 1.12037,-1.34122 1.920584,-1.00262 3.852109,-0.81298 6.659431,-0.81298 2.807321,0 5.167045,-0.12612 7.188595,1.04245 1.00115,0.57872 1.91928,1.60766 1.91928,2.6511 0,1.04344 -0.91813,2.07239 -1.91928,2.65111 -2.02155,1.16857 -4.381274,1.04245 -7.188595,1.04245 -2.807322,0 -4.738847,0.18963 -6.659431,-0.81299 -0.545384,-0.2847 -1.120369,-0.78915 -1.120369,-1.34121 0,-0.55206 0.574986,-1.05651 1.12037,-1.34122 1.920584,-1.00262 3.852109,-0.81298 6.659431,-0.81298 2.807321,0 5.167044,-0.12612 7.188594,1.04245 1.00116,0.57872 1.91928,1.60766 1.91928,2.6511 0,1.04344 -0.91812,2.07239 -1.91928,2.65111 -2.02155,1.16857 -4.381273,1.04245 -7.188594,1.04245 -2.807322,0 -4.738847,0.18963 -6.659431,-0.81299 -0.545384,-0.2847 -1.120369,-0.78915 -1.120369,-1.34121 0,-0.55206 0.574986,-1.05651 1.12037,-1.34122 1.920584,-1.00262 3.852109,-0.81299 6.659431,-0.81299 2.807321,0 5.167043,-0.12611 7.188603,1.04246 1.00115,0.57871 1.91928,1.60766 1.91928,2.6511 0,1.04344 -0.91813,2.07239 -1.91928,2.65111 -2.02156,1.16856 -4.381282,1.04245 -7.188603,1.04245 -2.807322,0 -4.738847,0.18963 -6.659431,-0.81299 -0.545384,-0.2847 -1.120369,-0.78915 -1.120369,-1.34121 0,-0.55206 0.574986,-1.05651 1.12037,-1.34122 1.920584,-1.00262 3.852109,-0.81299 6.659431,-0.81299 2.807321,0 5.167042,-0.12611 7.188592,1.04245 1.00116,0.57872 1.91929,1.60767 1.91929,2.65111 0,1.04344 -0.91813,2.07239 -1.91929,2.65111 -2.02155,1.16856 -4.381271,1.04245 -7.188592,1.04245 -2.807322,0 -4.738847,0.18963 -6.659431,-0.81299 -0.545384,-0.2847 -1.120369,-0.78915 -1.120369,-1.34121 0,-0.55206 0.574986,-1.05651 1.12037,-1.34122 1.920584,-1.00262 3.852109,-0.81299 6.659431,-0.81299 2.807321,0 5.167043,-0.12611 7.188599,1.04245 1.00115,0.57872 1.91928,1.60767 1.91928,2.65111 0,1.04344 -0.91813,2.07239 -1.91928,2.65111 -2.021556,1.16856 -4.381278,1.04245 -7.188599,1.04245 -2.807322,0 -4.738847,0.18963 -6.659431,-0.81299 -0.545384,-0.28471 -1.120369,-0.78915 -1.120369,-1.34121 0,-0.55206 0.574986,-1.05651 1.12037,-1.34122 1.920584,-1.00262 3.852109,-0.81299 6.659431,-0.81299 2.807321,0 5.167043,-0.12611 7.188597,1.04245 1.001153,0.57872 1.919281,1.60767 1.919281,2.65111 0,1.04344 -0.918128,2.07239 -1.919281,2.65111 -2.021554,1.16856 -4.381276,1.04245 -7.188597,1.04245 -2.807322,0 -4.738847,0.18963 -6.659431,-0.81299 -0.545384,-0.28471 -1.120369,-0.78915 -1.120369,-1.34122 0,-0.55206 0.574986,-1.0565 1.12037,-1.34121 1.920584,-1.00262 3.852109,-0.81299 6.659431,-0.81299 2.807321,0 5.167043,-0.12611 7.188599,1.04245 1.00115,0.57872 1.91928,1.60767 1.91928,2.65111 0,1.04344 -0.91813,2.07239 -1.91928,2.65111 -2.021556,1.16856 -4.381278,1.04245 -7.188599,1.04245 -2.807322,0 -4.738847,0.18963 -6.659431,-0.81299 -0.545384,-0.28471 -1.120369,-0.78916 -1.120369,-1.34122 0,-0.55206 0.574986,-1.0565 1.12037,-1.34121 1.920584,-1.00262 3.852109,-0.81299 6.659431,-0.81299 2.807321,0 5.167043,-0.12611 7.188597,1.04245 1.001153,0.57872 1.919281,1.60767 1.919281,2.65111 0,1.04344 -0.918128,2.07239 -1.919281,2.65111 -2.021554,1.16856 -4.381276,1.04245 -7.188597,1.04245 -2.807322,0 -4.738847,0.18963 -6.659431,-0.81299 -0.545384,-0.28471 -0.543651,-0.56202 -1.120369,-1.34122"
       sodipodi:nodetypes="casaaasaaasaaasaaasaaasaaasaaasaaasaaasaaasaaasaaasaaasaaasaaasaaasaaasaaasaaasaaasaaasaaasaaasaaasaaasaaasaaasaaasaaasaaasaaasac" />
    <circle
       style="fill:#a3be8c;fill-opacity:1;stroke:#26311c;stroke-width:1.18977;stroke-linecap:round;stroke-linejoin:round;stroke-opacity:1"
       id="path1376"
       cx="33.66069"
       cy="116.15862"
       r="7.7721252" />
    <circle
       style="fill:#a3be8c;fill-opacity:1;stroke:#26311c;stroke-width:1.18977;stroke-linecap:round;stroke-linejoin:round;stroke-opacity:1"
       id="path1376-4"
       cx="33.66069"
       cy="99.058174"
       r="7.7721252" />
    <circle
       style="fill:#a3be8c;fill-opacity:1;stroke:#26311c;stroke-width:1.18977;stroke-linecap:round;stroke-linejoin:round;stroke-opacity:1"
       id="path1376-7"
       cx="33.66069"
       cy="81.957726"
       r="7.7721252" />
    <circle
       style="fill:#a3be8c;fill-opacity:1;stroke:#26311c;stroke-width:1.18977;stroke-linecap:round;stroke-linejoin:round;stroke-opacity:1"
       id="path1376-8"
       cx="33.806232"
       cy="64.713783"
       r="7.7721252" />
    <circle
       style="fill:#a3be8c;fill-opacity:1;stroke:#26311c;stroke-width:1.18977;stroke-linecap:round;stroke-linejoin:round;stroke-opacity:1"
       id="path1376-8-4"
       cx="-23.66857"
       cy="64.713783"
       r="7.7721252" />
    <circle
       style="fill:#a3be8c;fill-opacity:1;stroke:#26311c;stroke-width:1.18977;stroke-linecap:round;stroke-linejoin:round;stroke-opacity:1"
       id="path1376-8-5"
       cx="91.281036"
       cy="64.713783"
       r="7.7721252" />
    <path
       id="path25482"
       style="fill:none;stroke:#e5e9f0;stroke-width:1.456;stroke-linecap:round;stroke-linejoin:round;stroke-miterlimit:4;stroke-dasharray:none;marker-end:url(#TriangleOutM);stroke-opacity:1"
       d="m -23.546297,51.825684 c 10e-7,-14.52459 11.774508,-26.299097 26.2990982,-26.299097 14.5245898,0 26.2990978,11.774507 26.2990988,26.299097"
       sodipodi:nodetypes="csc" />
    <path
       id="path25482-6"
       style="fill:none;stroke:#e5e9f0;stroke-width:1.456;stroke-linecap:round;stroke-linejoin:round;stroke-miterlimit:4;stroke-dasharray:none;marker-end:url(#TriangleOutM-0);stroke-opacity:1"
       d="m 38.586099,51.825684 c 1e-6,-14.52459 11.774508,-26.299097 26.299099,-26.299097 14.524589,0 26.299097,11.774507 26.299098,26.299097"
       sodipodi:nodetypes="csc" />
  </g>
</svg>
